<svg xmlns="http://www.w3.org/2000/svg" width="152.4" height="103.165" viewBox="0 0 114.3 77.374"><path style="stroke:none;fill-rule:nonzero;fill:#f48523;fill-opacity:1" d="m32.691 18.04-.027-3.474 10.48-3.93.086 3.93 3.11-1.078-.035-4.097 9.867-3.43-.027 4.293 1.93-.668 27.554 9.86-.05-3.567 27.69-10.883V0L85.349 12.117 58.207.227 29.512 12.133 1.652.367v8.625l27.922 10.453Zm0 0"/><path style="stroke:none;fill-rule:nonzero;fill:#b85137;fill-opacity:1" d="m32.285 29.168-.027-3.777 10.492-2.61.09 4.106 3.11-.672-.036-4.324 10.063-2.508.074 4.648 1.937-.418 27.785 6.098-.046-3.57 27.457-7.121v-4.997l-27.692 8.36-28.066-8.36-28 8.41-27.774-8.41-.086 8.997 27.598 6.824Zm0 0"/><path style="stroke:none;fill-rule:nonzero;fill:#602716;fill-opacity:1" d="m31.813 39.59.027-3.496 10.867-1.328.059 4.004 3.175-.313.02-4.105 10.078-1.09.066 4.277 1.942-.16 27.789 2.441-.05-3.57 27.456-3.465V27.79l-27.691 4.703-28.067-4.703-28 4.898-27.77-4.898-.089 8.996 27.598 3.313Zm0 0"/><path style="stroke:none;fill-rule:nonzero;fill:#20565f;fill-opacity:1" d="M113.195 47.879H1.652V42.71h111.543ZM6.328 55.473h1.5c1.652 0 2.492.722 2.492 2.191 0 1.441-.84 2.16-2.492 2.16h-1.5Zm0 7.98H9c1.95 0 3.45-.508 4.5-1.527 1.02-.992 1.531-2.434 1.531-4.262 0-1.86-.511-3.27-1.531-4.289-1.05-1.02-2.55-1.531-4.5-1.531H1.828v17.34h4.5ZM20.852 62.223c.148-.297.328-.57.597-.809.211-.27.512-.45.84-.57.332-.149.66-.211 1.05-.211.391 0 .72.062 1.083.21.297.122.598.302.84.571.238.238.418.512.566.84.152.36.211.691.211 1.05 0 .391-.059.72-.21 1.051a2.814 2.814 0 0 1-.567.84c-.242.27-.543.45-.84.598-.363.121-.692.21-1.082.21-.39 0-.719-.089-1.05-.21-.33-.148-.63-.328-.84-.598a2.27 2.27 0 0 1-.598-.87c-.122-.302-.18-.66-.18-1.052 0-.359.058-.718.18-1.05Zm5.07-3.66c-.992-1.02-2.192-1.528-3.66-1.528-.903 0-1.711.149-2.403.48-.718.36-1.347.778-1.859 1.348-.54.602-.93 1.23-1.23 1.98-.301.782-.45 1.59-.45 2.43 0 .903.18 1.743.48 2.52.302.75.688 1.41 1.231 1.98a5.105 5.105 0 0 0 1.89 1.32c.72.333 1.528.481 2.368.481 1.531 0 2.73-.539 3.633-1.68v1.29h4.168v-11.79h-4.168ZM33.121 50.105v19.079h4.168V50.105ZM38.398 51.844l7.293 17.34h3.598l7.32-17.34h-4.89l-4.23 10.59-4.169-10.59ZM58.559 57.395v11.789h4.171v-11.79Zm-.09-3.63c.09.297.3.54.48.75.211.208.48.387.781.508.27.122.57.18.899.18a2.313 2.313 0 0 0 1.652-.688c.207-.21.39-.453.508-.75.121-.273.18-.57.18-.902 0-.328-.059-.629-.18-.93-.117-.269-.3-.507-.508-.718-.21-.211-.453-.39-.75-.512-.3-.117-.601-.18-.902-.18-.328 0-.629.063-.899.18-.3.121-.57.3-.78.512-.18.21-.391.45-.481.719-.117.3-.207.601-.207.93 0 .331.09.628.207.902ZM74.969 57.723a9.574 9.574 0 0 0-3.778-.75c-.812 0-1.53.09-2.16.3-.691.18-1.23.48-1.68.84-.48.36-.812.813-1.081 1.352-.239.508-.36 1.11-.36 1.77 0 .898.238 1.62.781 2.128.508.54 1.41.93 2.7 1.172.39.059.687.149.93.207.238.063.417.153.538.242.121.09.211.18.243.27.027.121.058.238.058.39 0 .239-.12.481-.36.66-.269.15-.57.239-.96.239-1.02 0-2.13-.39-3.3-1.2l-1.528 2.942c1.527.899 3.117 1.38 4.707 1.38.84 0 1.59-.122 2.281-.33.691-.21 1.29-.48 1.8-.87.481-.39.872-.84 1.141-1.38.27-.57.418-1.202.418-1.89 0-.902-.27-1.68-.87-2.28-.567-.571-1.41-.99-2.579-1.2-.39-.09-.719-.18-.988-.242a2.824 2.824 0 0 1-.57-.207c-.122-.063-.243-.153-.243-.243a.545.545 0 0 1-.09-.328c0-.242.122-.453.391-.633.211-.148.512-.207.899-.207.75 0 1.5.18 2.28.598ZM77.281 57.395v11.789h4.168v-11.79Zm-.09-3.63c.09.297.297.54.48.75.208.208.477.387.778.508.27.122.57.18.903.18.296 0 .597-.058.898-.18.3-.12.54-.3.75-.507.21-.211.39-.453.512-.75.117-.274.18-.57.18-.903 0-.328-.063-.629-.18-.93-.121-.269-.301-.507-.512-.718-.21-.211-.45-.39-.75-.512-.3-.117-.602-.18-.898-.18-.332 0-.633.063-.903.18-.3.121-.57.3-.777.512-.184.21-.39.45-.48.719-.122.3-.212.601-.212.93 0 .331.09.628.211.902ZM88.648 62.223c.122-.328.301-.598.57-.868.212-.242.512-.421.84-.57.333-.152.66-.21 1.051-.21.36 0 .692.058 1.051.21.328.149.602.328.84.57.238.27.422.54.602.868.117.332.207.691.207 1.05 0 .391-.09.75-.207 1.051-.18.36-.364.63-.602.871-.238.27-.512.45-.84.598-.36.121-.691.21-1.05.21-.391 0-.72-.089-1.051-.21-.329-.148-.63-.328-.84-.598a1.953 1.953 0 0 1-.57-.87c-.18-.302-.239-.692-.239-1.083 0-.36.059-.719.238-1.02Zm-4.109 3.601c.332.809.84 1.469 1.473 2.04.629.6 1.347 1.019 2.218 1.32.84.3 1.801.48 2.79.48 1.05 0 1.98-.18 2.878-.48.903-.301 1.653-.72 2.282-1.32.601-.54 1.11-1.2 1.468-1.981.364-.778.543-1.617.543-2.578 0-.93-.18-1.77-.543-2.582-.328-.75-.84-1.41-1.468-1.98-.63-.567-1.38-.99-2.25-1.317a8.658 8.658 0 0 0-2.82-.453c-1.051 0-1.981.152-2.848.48-.871.3-1.621.75-2.25 1.29-.633.6-1.14 1.23-1.473 1.98A5.82 5.82 0 0 0 84 63.215c0 .96.18 1.828.54 2.61ZM100.32 69.184h4.168v-6.27c0-.781.184-1.379.57-1.828.364-.422.903-.633 1.59-.633.274 0 .512.063.75.121.243.059.454.211.633.39.207.212.36.509.45.872.058.36.12.84.12 1.406v5.942h4.169v-7.47c0-.628-.06-1.198-.18-1.679-.121-.48-.36-.96-.692-1.351a4.6 4.6 0 0 0-1.5-1.141c-.597-.27-1.32-.39-2.16-.39-.777 0-1.468.12-2.039.331-.57.27-1.14.72-1.71 1.41v-1.5h-4.169Zm0 0"/></svg>